<svg xmlns="http://www.w3.org/2000/svg" width="48" height="48" viewBox="0 0 48 48">
    <g fill="none" fill-rule="evenodd">
        <path fill="#F4C6EF" d="M33.296 16.425c3.992 3.777 5.636 10.393 4.182 16.246-1.455 5.86-6 10.957-11.685 13.486-5.694 2.529-12.528 2.481-17.197-.302-4.669-2.775-7.172-8.286-8.148-13.74C-.535 26.65.01 21.235 2.968 17.69c2.951-3.555 8.314-5.24 14.165-5.614 5.842-.374 12.172.572 16.163 4.35z"/>
        <path stroke="#7F1A5F" stroke-linecap="square" stroke-linejoin="round" stroke-width="3" d="M42.727 2H13.273C11.465 2 10 3.465 10 5.273v18c0 1.807 1.465 3.272 3.273 3.272h8.182L28 34.727l6.545-8.182h8.182c1.808 0 3.273-1.465 3.273-3.272v-18C46 3.465 44.535 2 42.727 2z"/>
        <path stroke="#7F1A5F" stroke-linecap="square" stroke-width="3" d="M18.182 10.182h19.636M18.182 18.364h11.454"/>
    </g>
</svg>
