<?xml version="1.0" encoding="UTF-8"?>
<svg width="70px" height="70px" viewBox="0 0 70 70" version="1.1" xmlns="http://www.w3.org/2000/svg" xmlns:xlink="http://www.w3.org/1999/xlink">
    <!-- Generator: Sketch 64 (93537) - https://sketch.com -->
    <title>Charts, filters, and pivots</title>
    <desc>Created with Sketch.</desc>
    <g id="for-icons-section" stroke="none" stroke-width="1" fill="none" fill-rule="evenodd">
        <g id="SOLUTIONS1-Copy-40" transform="translate(-265.000000, -2677.000000)">
            <g id="5-Icons/Case-Management/z-Features/Filter" transform="translate(265.000000, 2675.000000)">
                <path d="M54.3258431,17.6211212 C60.8380354,24.1261456 63.5211125,35.5202094 61.1481397,45.5995735 C58.775167,55.6926324 51.3596271,64.4709917 42.0834609,68.8259343 C32.7938119,73.180877 21.6435365,73.0987083 14.0257546,68.3055324 C6.40797273,63.5260513 2.3226844,54.0355631 0.731714027,44.6409384 C-0.872739144,35.2326189 0.0171256402,25.9064681 4.84396795,19.7985925 C9.65732747,13.6770222 18.4076645,10.7737271 27.9534867,10.1300721 C37.4858262,9.48641703 47.8136508,11.1160968 54.3258431,17.6211212 Z" id="Path" fill="#F4C6EF"></path>
                <g id="Social-Tasks" stroke-width="1"></g>
                <g id="5-Icons/Analytics/filter-Copy" stroke-width="1" transform="translate(19.000000, 4.000000)" stroke="#1D2B36" stroke-linecap="round" stroke-linejoin="bevel">
                    <path d="M47,0 C48.1045695,-2.02906125e-16 49,0.8954305 49,2 L49,10.8068182 C49,11.9113877 48.1045695,12.8068182 47,12.8068182 L46.586,12.806 L32.156,29.023 L32.15625,47 C32.15625,48.1045695 31.2608195,49 30.15625,49 L20.375,49 C19.2704305,49 18.375,48.1045695 18.375,47 L18.375,29.354 L2.921,12.806 L2,12.8068182 C0.8954305,12.8068182 1.11632554e-15,11.9113877 0,10.8068182 L0,2 C-5.7935996e-16,0.8954305 0.8954305,2.02906125e-16 2,0 L47,0 Z" id="Combined-Shape" stroke-width="3"></path>
                    <line x1="2" y1="12.6721109" x2="47.5" y2="12.5" id="Line-3" stroke-width="3"></line>
                </g>
            </g>
        </g>
    </g>
</svg>