<?xml version="1.0" encoding="UTF-8"?>
<svg width="48px" height="48px" viewBox="0 0 48 48" version="1.1" xmlns="http://www.w3.org/2000/svg" xmlns:xlink="http://www.w3.org/1999/xlink">
    <title>visual form and workflow designer</title>
    <g id="visual-form-and-workflow-designer" stroke="none" stroke-width="1" fill="none" fill-rule="evenodd">
        <g id="5-Icons/Collaboration/z-Features/Surveys-&amp;-Polls" transform="translate(0.000000, 2.000000)">
            <path d="M33.2964845,14.4251672 C37.2878281,18.2022781 38.9322948,24.8181861 37.4778921,30.6707201 C36.0234894,36.5312059 31.4784811,41.6283178 25.7930889,44.1569941 C20.0994331,46.6856705 13.2653933,46.6379596 8.59643023,43.8548253 C3.92746715,41.0796427 1.42358076,35.5690366 0.448469888,30.1140932 C-0.534904637,24.651198 0.0104963601,19.2360137 2.96888358,15.6895054 C5.91900716,12.1350452 11.282117,10.4492609 17.1327822,10.0755257 C22.9751838,9.70179053 29.3051408,10.6480562 33.2964845,14.4251672 Z" id="Path-" fill="#BEEDC0"></path>
            <polygon id="Rectangle" stroke="#306625" stroke-width="3" stroke-linecap="round" stroke-linejoin="round" transform="translate(29.500000, 17.078947) scale(-1, -1) rotate(-90.000000) translate(-29.500000, -17.078947) " points="25.7105263 1.57894737 33.2894737 1.57894737 33.2894737 32.5789474 25.7105263 32.5789474"></polygon>
            <polygon id="Rectangle" stroke="#306625" stroke-width="3" stroke-linecap="round" stroke-linejoin="round" transform="translate(23.000000, 4.500000) scale(-1, -1) rotate(-90.000000) translate(-23.000000, -4.500000) " points="19.2105263 -7.5 26.7894737 -7.5 26.7894737 16.5 19.2105263 16.5"></polygon>
            <polygon id="Rectangle" stroke="#306625" stroke-width="3" stroke-linecap="round" stroke-linejoin="round" transform="translate(21.000000, 29.657895) scale(-1, -1) rotate(-90.000000) translate(-21.000000, -29.657895) " points="17.2105263 17.6578947 24.7894737 17.6578947 24.7894737 41.6578947 17.2105263 41.6578947"></polygon>
        </g>
    </g>
</svg>