<svg width="64" height="64" viewBox="0 0 64 64" fill="none" xmlns="http://www.w3.org/2000/svg">
<g clip-path="url(#clip0_9_23)">
<path d="M20.3475 5.76008C-7.14082 7.25423 -0.218478 66.2249 32.246 61.9386C47.5655 59.9087 54.6645 43.8629 53.8486 29.9733C52.8444 13.3389 38.125 4.78385 20.3475 5.76008Z" fill="#F4C6EF"/>
<path d="M41.6799 6.3379L41.8053 6.34755L41.8142 6.22213L41.9481 4.3407L41.9569 4.21681L41.833 4.2072C41.4754 4.17947 41.1169 4.1655 40.7582 4.16531L40.6332 4.16525L40.6332 4.29031L40.6332 6.17741L40.6332 6.3024L40.7582 6.30241C41.0657 6.30243 41.3732 6.31427 41.6799 6.3379ZM45.267 7.17841L45.3863 7.22646L45.431 7.10581L46.082 5.34515L46.124 5.23143L46.0117 5.18593C45.3437 4.9155 44.6557 4.69844 43.9569 4.53471L43.833 4.50566L43.8062 4.63013L43.4102 6.47194L43.3844 6.59189L43.5038 6.61991C44.1039 6.76068 44.6932 6.94735 45.267 7.17841ZM46.8875 7.83313L46.83 7.93914L46.9339 8.00044C47.183 8.14746 47.4273 8.30334 47.6663 8.46781L47.6663 8.46944L47.7198 8.50674C47.9759 8.68517 48.2256 8.87339 48.4683 9.07103L48.5694 9.1533L48.6474 9.04889L49.7596 7.55998L49.8314 7.46391L49.7384 7.38822C49.1732 6.92825 48.5763 6.51219 47.9526 6.14341L47.841 6.07742L47.7791 6.19135L46.8875 7.83313ZM51.0044 11.8501L51.0772 11.958L51.1821 11.8809L52.6614 10.794L52.7585 10.7226L52.6907 10.623C52.277 10.0144 51.8213 9.43419 51.329 8.89195L51.2411 8.7951L51.1483 8.88734L49.839 10.1894L49.7541 10.2739L49.8348 10.3623C50.2591 10.8275 50.6501 11.3248 51.0044 11.8501ZM52.0084 13.3378L51.9016 13.3939L51.9539 13.5026C52.0918 13.7893 52.2197 14.0812 52.3374 14.3777L52.4535 14.3316L52.3373 14.3776C52.4548 14.6744 52.5618 14.9756 52.6581 15.2807L52.6967 15.4029L52.8179 15.3612L54.5359 14.7706L54.6512 14.7309L54.6145 14.6147C54.3903 13.9047 54.1161 13.2129 53.7941 12.5449L53.7379 12.4283L53.6233 12.4886L52.0084 13.3378ZM53.2871 19.0653L53.2898 19.1875L53.412 19.1875L53.4138 19.1875L53.4138 19.1876L53.4171 19.1875L55.2256 19.1403L55.3503 19.137L55.3473 19.0123C55.329 18.2667 55.2579 17.5211 55.1358 16.7869L55.115 16.662L54.9904 16.6844L53.209 17.0052L53.0877 17.0271L53.1079 17.1486C53.2127 17.7821 53.2726 18.4227 53.2871 19.0653ZM53.3376 20.8785L53.2122 20.8623L53.1975 20.9878C53.1598 21.3075 53.1115 21.6235 53.0523 21.9415C52.9914 22.2575 52.9197 22.5696 52.8373 22.878L52.8057 22.9964L52.9234 23.0304L54.6668 23.5342L54.7895 23.5697L54.8223 23.4463C55.0139 22.7257 55.154 21.9913 55.2416 21.2492L55.256 21.1264L55.1334 21.1106L53.3376 20.8785ZM51.3466 26.3893L51.2841 26.4922L51.3846 26.5586L52.9127 27.5682L53.0211 27.6398L53.0885 27.5287C53.4714 26.897 53.8087 26.2388 54.1003 25.554L54.1478 25.4425L54.0378 25.3916L52.3848 24.6273L52.268 24.5733L52.2174 24.6917C51.9665 25.279 51.6762 25.8474 51.3466 26.3893ZM49.6198 28.6417L49.537 28.7282L49.6198 28.8147L50.8984 30.1489L50.9887 30.2431L51.079 30.1488C51.3323 29.8842 51.5762 29.61 51.8102 29.3268L51.8866 29.2344L51.7974 29.1542L50.4266 27.9219L50.3292 27.8344L50.2463 27.9357C50.0478 28.1784 49.8384 28.4137 49.6198 28.6417Z" fill="#1D2B36" stroke="#1D2B36" stroke-width="0.25"/>
<path d="M40.7584 6.30241L40.8834 6.3024L40.8834 6.17741L40.8834 4.29031L40.8834 4.16535L40.7585 4.16531C38.3571 4.16465 35.9928 4.78208 33.8753 5.96256C31.7579 7.14302 29.9527 8.84991 28.6194 10.9316C27.2861 13.0132 26.4656 15.4054 26.2304 17.8964C25.9951 20.3873 26.3522 22.9004 27.2703 25.2132C28.1884 27.526 29.6392 29.5673 31.4947 31.156C33.3502 32.7448 35.5531 33.8318 37.9083 34.3203C40.2635 34.8088 42.6979 34.6836 44.9955 33.9557C47.2931 33.2279 49.3826 31.9202 51.0792 30.1489L51.162 30.0624L51.0792 29.9759L49.8006 28.6417L49.7103 28.5476L49.6201 28.6417C48.1622 30.1628 46.3678 31.2849 44.396 31.9089C42.4242 32.533 40.3355 32.64 38.3148 32.2205C36.294 31.801 34.4031 30.8679 32.8096 29.5033C31.2161 28.1387 29.9693 26.3846 29.1799 24.3962C28.3906 22.4078 28.0833 20.2467 28.2854 18.1044C28.4876 15.9621 29.1929 13.9053 30.3385 12.116C31.4841 10.3268 33.0346 8.86057 34.8521 7.84671C36.6695 6.83287 38.6982 6.30257 40.7584 6.30241Z" fill="#1D2B36" stroke="#1D2B36" stroke-width="0.25"/>
<path d="M39.8539 9.9516C40.0938 9.9516 40.3238 10.051 40.4933 10.228C40.6629 10.4049 40.7582 10.6449 40.7582 10.8951L40.7582 20.7269L46.6321 24.2294C46.8343 24.3566 46.9807 24.5614 47.0401 24.7998C47.0996 25.0383 47.0672 25.2915 46.9501 25.5054C46.8329 25.7193 46.6403 25.877 46.4132 25.9446C46.1862 26.0122 45.9428 25.9845 45.7351 25.8674L39.4054 22.0932C39.267 22.0107 39.152 21.8915 39.072 21.7477C38.9919 21.6038 38.9498 21.4405 38.9497 21.2742L38.9497 10.8951C38.9497 10.6449 39.045 10.4049 39.2146 10.228C39.3841 10.051 39.6141 9.9516 39.8539 9.9516Z" fill="#1D2B36"/>
</g>
<defs>
<clipPath id="clip0_9_23">
<rect width="64" height="64" fill="white"/>
</clipPath>
</defs>
</svg>
