<?xml version="1.0" encoding="UTF-8"?>
<svg width="72px" height="72px" viewBox="0 0 72 72" version="1.1" xmlns="http://www.w3.org/2000/svg" xmlns:xlink="http://www.w3.org/1999/xlink">
    <!-- Generator: Sketch 54.1 (76490) - https://sketchapp.com -->
    <title>5-Icons/Collaboration/Secret Channels Copy 3</title>
    <desc>Created with Sketch.</desc>
    <g id="Icons" stroke="none" stroke-width="1" fill="none" fill-rule="evenodd">
        <g id="5-Icons/Collaboration/Secret-Channels-Copy-3">
            <g id="5-Icons/Collaboration/Secret-Channels">
                <path d="M54.3258431,17.6211212 C60.8380354,24.1261456 63.5211125,35.5202094 61.1481397,45.5995735 C58.775167,55.6926324 51.3596271,64.4709917 42.0834609,68.8259343 C32.7938119,73.180877 21.6435365,73.0987083 14.0257546,68.3055324 C6.40797273,63.5260513 2.3226844,54.0355631 0.731714027,44.6409384 C-0.872739144,35.2326189 0.0171256402,25.9064681 4.84396795,19.7985925 C9.65732747,13.6770222 18.4076645,10.7737271 27.9534867,10.1300721 C37.4858262,9.48641703 47.8136508,11.1160968 54.3258431,17.6211212 Z" id="Path-Copy-6" fill="#87E5F2"></path>
                <g id="Group" transform="translate(26.000000, 3.000000)" stroke="#1D2B36" stroke-linecap="round" stroke-linejoin="round" stroke-width="3">
                    <path d="M41.4972003,34.9381883 C41.4983756,33.8953712 40.9980499,32.9176345 40.1569436,32.3190577 C34.4811365,28.5874674 27.8032304,26.7390894 21.0472748,27.0296916 C14.2913192,26.7390894 7.61341305,28.5874674 1.93760596,32.3190577 C1.09649962,32.9176345 0.596173966,33.8953712 0.597349301,34.9381883 L0.597347235,43 L41.4972023,43 L41.4972003,34.9381883 Z" id="Path"></path>
                    <ellipse id="Oval" cx="21.9984322" cy="12.5" rx="12.5235979" ry="12.5"></ellipse>
                </g>
            </g>
        </g>
    </g>
</svg>